<svg width="33" height="22" viewBox="0 0 33 22" fill="none" xmlns="http://www.w3.org/2000/svg">
<path fill-rule="evenodd" clip-rule="evenodd" d="M31.7308 9.7778H4.33341L12.3205 2.08647C12.8162 1.60919 12.8162 0.835344 12.3205 0.358004C11.8249 -0.119335 11.0212 -0.119335 10.5255 0.358004L0.371631 10.1358C0.3696 10.1377 0.367887 10.1399 0.365856 10.142C0.338567 10.1686 0.312421 10.1962 0.287798 10.2252C0.275042 10.24 0.263937 10.2558 0.252069 10.2711C0.23925 10.2877 0.22586 10.3039 0.213929 10.3211C0.201363 10.3391 0.190512 10.3578 0.179152 10.3763C0.169379 10.392 0.159035 10.4075 0.150023 10.4237C0.139615 10.4424 0.130858 10.4616 0.121529 10.4806C0.113152 10.4978 0.104331 10.5146 0.0967154 10.5321C0.0887827 10.5506 0.0823731 10.5694 0.0753923 10.5881C0.0684115 10.6071 0.0608596 10.6257 0.0547673 10.6451C0.0489288 10.6637 0.0446135 10.6826 0.0397269 10.7014C0.0345231 10.7212 0.0287481 10.7409 0.0245596 10.7611C0.0201173 10.7827 0.0174519 10.8045 0.0142788 10.8263C0.0116769 10.844 0.00812308 10.8614 0.00628269 10.8794C0.00222115 10.9195 0 10.9598 0 11C0 11.0403 0.00222115 11.0805 0.00628269 11.1207C0.00812308 11.1387 0.0116769 11.1563 0.0143423 11.1741C0.0175154 11.1957 0.0201173 11.2174 0.0245596 11.2388C0.0288115 11.2593 0.0345865 11.2791 0.0398538 11.2991C0.0447404 11.3177 0.0489288 11.3364 0.0547039 11.3548C0.0608596 11.3744 0.0685385 11.3933 0.0756462 11.4124C0.0825 11.4309 0.0888462 11.4496 0.0967154 11.4678C0.104331 11.4856 0.113279 11.5025 0.121719 11.5198C0.130985 11.5387 0.139679 11.5577 0.14996 11.5762C0.159098 11.5926 0.169506 11.6082 0.179342 11.6242C0.190702 11.6425 0.20149 11.661 0.213865 11.6788C0.225923 11.6961 0.239313 11.7124 0.252196 11.7291C0.264063 11.7444 0.275106 11.76 0.287798 11.7749C0.312421 11.8038 0.338567 11.8314 0.365856 11.8581C0.367887 11.86 0.3696 11.8622 0.371631 11.8643L10.5255 21.642C11.0212 22.1193 11.8249 22.1193 12.3205 21.642C12.8162 21.1648 12.8162 20.3908 12.3205 19.9135L4.33341 12.2222H31.7308C32.4318 12.2222 33 11.6751 33 11C33 10.325 32.4318 9.7778 31.7308 9.7778Z" fill="black"/>
</svg>
