<svg width="29" height="29" viewBox="0 0 29 29" fill="none" xmlns="http://www.w3.org/2000/svg">
<path d="M14.5 0.75C7.04612 0.75 0.75 7.04612 0.75 14.5C0.75 21.9539 7.04612 28.25 14.5 28.25C21.9539 28.25 28.25 21.9539 28.25 14.5C28.25 7.04612 21.9539 0.75 14.5 0.75ZM14.5 7.625C16.8746 7.625 18.625 9.374 18.625 11.75C18.625 14.126 16.8746 15.875 14.5 15.875C12.1267 15.875 10.375 14.126 10.375 11.75C10.375 9.374 12.1267 7.625 14.5 7.625ZM7.47925 21.0615C8.71263 19.2465 10.7696 18.0365 13.125 18.0365H15.875C18.2318 18.0365 20.2874 19.2465 21.5208 21.0615C19.7635 22.9425 17.2706 24.125 14.5 24.125C11.7294 24.125 9.2365 22.9425 7.47925 21.0615Z" fill="black"/>
</svg>
