<svg width="31" height="31" viewBox="0 0 31 31" fill="none" xmlns="http://www.w3.org/2000/svg">
<path d="M30.4305 3.30649L28.0086 5.72837C27.2518 6.48521 26.0227 6.48521 25.2659 5.72837C24.509 4.97153 24.509 3.74243 25.2659 2.9856L27.6877 0.563721C28.4446 -0.193115 29.6737 -0.193115 30.4305 0.563721C31.1874 1.32056 31.1874 2.54966 30.4305 3.30649ZM11.0555 22.6815L3.30552 30.4315C2.54868 31.1883 1.31958 31.1883 0.562744 30.4315C-0.194092 29.6747 -0.194092 28.4456 0.562744 27.6887L8.31274 19.9387C9.06958 19.1819 10.2987 19.1819 11.0555 19.9387C11.8124 20.6956 11.8124 21.9247 11.0555 22.6815ZM14.5309 7.75064C11.0434 7.75064 8.16743 10.3905 7.79204 13.775C7.677 14.8407 6.71431 15.6036 5.65474 15.4885C4.59517 15.3735 3.82622 14.4108 3.94126 13.3512C4.52856 8.0231 9.04536 3.87563 14.5309 3.87563C20.4161 3.87563 25.1872 8.64673 25.1872 14.5319C25.1872 17.317 24.1155 19.854 22.3657 21.7551C21.6391 22.5422 21.3122 23.2567 21.3122 23.8561V24.2194C21.3122 27.9672 18.2788 31.0006 14.5309 31.0006C13.4592 31.0006 12.5934 30.1348 12.5934 29.0631C12.5934 27.9915 13.4592 27.1256 14.5309 27.1256C16.1354 27.1256 17.4372 25.8239 17.4372 24.2194V23.85C17.4372 21.8581 18.4907 20.2415 19.52 19.1274C20.634 17.9165 21.3122 16.3059 21.3122 14.5319C21.3122 10.784 18.2788 7.75064 14.5309 7.75064ZM14.5309 12.5944C13.4592 12.5944 12.5934 13.4602 12.5934 14.5319C12.5934 15.3372 11.9456 15.985 11.1403 15.985C10.335 15.985 9.68716 15.3372 9.68716 14.5319C9.68716 11.8557 11.8547 9.68814 14.5309 9.68814C17.2071 9.68814 19.3747 11.8557 19.3747 14.5319C19.3747 15.3372 18.7268 15.985 17.9215 15.985C17.1163 15.985 16.4684 15.3372 16.4684 14.5319C16.4684 13.4602 15.6026 12.5944 14.5309 12.5944Z" fill="black"/>
</svg>
