<svg width="11" height="6" viewBox="0 0 11 6" fill="none" xmlns="http://www.w3.org/2000/svg">
<path d="M0.896948 1.45306L5.2162 5.01569C5.29206 5.07826 5.39382 5.11328 5.49976 5.11328C5.6057 5.11328 5.70746 5.07826 5.78332 5.01569L10.1042 1.45306C10.1396 1.42392 10.1677 1.38907 10.1869 1.35057C10.2061 1.31208 10.216 1.27072 10.216 1.22894C10.216 1.18716 10.2061 1.1458 10.1869 1.10731C10.1677 1.06881 10.1396 1.03396 10.1042 1.00482C10.0316 0.94485 9.93424 0.911279 9.83282 0.911279C9.7314 0.911279 9.634 0.94485 9.56145 1.00482L5.49976 4.355L1.43889 1.00482C1.36637 0.945055 1.26914 0.911614 1.16792 0.911614C1.06669 0.911614 0.969465 0.945055 0.896948 1.00482C0.861569 1.03396 0.833449 1.06881 0.814249 1.10731C0.795048 1.1458 0.785156 1.18716 0.785156 1.22894C0.785156 1.27072 0.795048 1.31208 0.814249 1.35057C0.833449 1.38907 0.861569 1.42392 0.896948 1.45306Z" fill="black"/>
</svg>
